<?xml version="1.0" standalone="no"?>
<!DOCTYPE svg PUBLIC "-//W3C//DTD SVG 20010904//EN"
 "http://www.w3.org/TR/2001/REC-SVG-20010904/DTD/svg10.dtd">
<svg version="1.0" xmlns="http://www.w3.org/2000/svg"
 width="1262.000000pt" height="1174.000000pt" viewBox="0 0 1262.000000 1174.000000"
 preserveAspectRatio="xMidYMid meet">

<g transform="translate(0.000000,1174.000000) scale(0.100000,-0.100000)"
fill="#000000" stroke="none">
<path d="M12469 11713 c54 -70 104 -148 127 -196 l24 -52 0 138 0 137 -86 0
-86 0 21 -27z"/>
<path d="M6111 9550 c-186 -26 -353 -111 -482 -247 -59 -62 -121 -150 -145
-210 l-15 -34 -62 34 c-74 40 -148 70 -237 94 -100 27 -338 24 -445 -5 -204
-56 -390 -184 -518 -355 -82 -110 -167 -339 -167 -451 0 -82 -1 -82 -103 -89
-119 -8 -192 -27 -302 -81 -203 -100 -345 -270 -417 -496 -20 -65 -23 -95 -22
-220 0 -121 4 -156 22 -210 12 -36 22 -70 22 -75 0 -6 -25 -19 -56 -28 -178
-55 -367 -195 -472 -349 -49 -72 -109 -203 -134 -293 -19 -68 -22 -106 -22
-255 0 -149 3 -187 22 -253 51 -186 176 -375 321 -488 45 -34 81 -63 81 -64 0
-2 -11 -22 -24 -46 -68 -123 -116 -330 -116 -494 1 -315 100 -564 305 -770
140 -141 314 -236 504 -278 l99 -22 6 -75 c9 -103 32 -191 72 -278 157 -343
524 -525 907 -449 6 1 16 -23 22 -53 59 -282 237 -513 493 -639 144 -72 249
-96 412 -95 187 1 351 48 502 145 l48 31 48 -31 c154 -99 316 -145 507 -145
142 0 212 13 343 64 278 107 507 385 560 681 5 26 13 43 20 41 55 -11 174 -17
253 -11 291 21 552 214 668 493 30 73 61 216 61 285 l0 36 85 18 c608 125 968
757 765 1342 -25 74 -83 189 -117 233 -14 18 -23 34 -22 36 2 1 37 24 77 51
146 95 269 243 337 403 58 138 70 201 69 367 -1 133 -4 160 -27 238 -33 107
-58 163 -112 248 -110 172 -302 320 -487 375 -66 20 -64 12 -33 114 22 76 31
263 15 342 -65 332 -302 573 -633 644 -38 7 -97 14 -132 14 l-63 0 -6 38 c-3
20 -8 64 -11 97 -15 133 -88 306 -179 423 -94 121 -203 209 -340 273 -250 117
-532 118 -786 2 -30 -13 -68 -34 -84 -46 -16 -11 -31 -16 -33 -11 -14 41 -104
175 -155 230 -178 190 -441 287 -687 254z m234 -255 c208 -53 366 -221 410
-433 18 -86 29 -105 71 -128 56 -30 104 -15 181 56 74 68 207 138 303 161 90
22 252 17 340 -10 243 -73 405 -243 472 -491 17 -65 19 -94 14 -212 -6 -135
-6 -136 19 -166 39 -46 79 -56 156 -37 214 50 446 -38 573 -219 56 -80 83
-148 98 -240 20 -128 -12 -270 -87 -386 -39 -61 -45 -105 -18 -151 20 -34 68
-59 113 -59 17 0 63 -7 103 -16 203 -46 368 -175 460 -359 49 -98 69 -183 70
-295 1 -120 -14 -181 -69 -298 -77 -159 -200 -269 -383 -342 -99 -40 -125 -69
-118 -137 4 -35 15 -54 66 -110 80 -87 136 -181 174 -291 40 -113 49 -286 22
-409 -33 -154 -127 -314 -244 -417 -142 -126 -289 -186 -496 -202 -150 -12
-167 -34 -158 -211 7 -135 -3 -193 -48 -290 -60 -126 -173 -229 -314 -284 -52
-20 -78 -23 -185 -23 -115 0 -131 2 -195 29 -41 17 -89 29 -117 29 -41 1 -52
-4 -79 -31 -31 -31 -33 -36 -41 -147 -10 -145 -42 -249 -106 -347 -92 -141
-247 -253 -407 -294 -79 -21 -232 -21 -320 0 -93 21 -196 72 -274 136 -101 82
-139 83 -240 1 -133 -107 -262 -152 -435 -152 -190 0 -337 61 -471 194 -134
133 -192 265 -202 457 -10 192 -60 224 -238 154 -93 -36 -230 -45 -325 -20
-151 39 -285 143 -353 273 -59 112 -69 163 -65 323 l3 141 -33 28 c-29 24 -44
28 -125 34 -228 16 -395 93 -544 250 -85 89 -134 170 -176 291 -32 89 -32 93
-32 275 0 162 3 195 23 266 28 96 62 159 131 237 45 51 51 63 51 102 0 59 -41
107 -105 125 -58 16 -148 70 -198 118 -109 104 -178 261 -197 447 -32 309 120
582 393 705 70 31 187 60 244 60 43 0 90 27 109 62 24 43 17 89 -26 158 -138
223 -110 498 70 679 139 141 323 196 515 156 80 -17 118 -10 156 31 23 25 24
30 24 192 0 157 2 172 28 247 78 221 231 367 457 436 89 27 251 32 340 10 97
-23 229 -94 303 -161 77 -71 125 -86 181 -56 42 23 54 43 71 129 44 211 198
375 406 431 71 19 200 20 274 1z"/>
<path d="M6170 7729 c-41 -17 -59 -39 -101 -128 -32 -70 -54 -99 -122 -165
-112 -110 -189 -149 -307 -154 -46 -2 -109 1 -140 8 -82 18 -181 74 -242 137
-29 30 -65 61 -80 69 -37 19 -88 17 -122 -5 -43 -28 -146 -160 -202 -257 l-49
-85 -40 5 c-242 31 -391 28 -544 -10 -205 -52 -373 -167 -497 -341 -119 -167
-142 -327 -68 -480 32 -67 140 -168 229 -215 153 -79 391 -143 633 -169 109
-12 112 -13 112 -37 0 -109 94 -508 181 -766 240 -714 620 -1201 1073 -1371
376 -141 770 -33 1114 307 261 258 458 603 617 1083 89 267 175 634 175 744
l0 28 113 12 c489 52 817 215 884 440 22 75 22 191 -1 261 -25 75 -96 180
-180 269 -155 161 -323 237 -577 262 -110 10 -194 7 -369 -16 l-45 -6 -49 85
c-56 98 -162 233 -203 258 -32 20 -84 23 -116 7 -12 -7 -44 -34 -71 -61 -105
-108 -201 -149 -356 -155 l-105 -5 -85 43 c-121 60 -221 161 -281 284 -59 120
-107 153 -179 124z m117 -459 c245 -260 611 -314 903 -132 30 19 65 44 78 55
14 13 26 18 30 12 122 -173 206 -388 249 -635 8 -47 17 -159 20 -250 9 -260
-19 -493 -96 -794 -213 -833 -598 -1393 -1061 -1545 -35 -12 -67 -21 -72 -21
-4 0 -8 133 -8 295 0 240 3 295 13 295 28 0 134 61 175 101 58 55 82 96 82
141 0 67 -81 130 -148 113 -15 -3 -47 -26 -72 -50 -55 -54 -107 -77 -175 -77
-61 -1 -125 29 -157 73 -76 104 -228 62 -228 -63 0 -41 25 -83 82 -137 41 -40
147 -101 175 -101 10 0 13 -55 13 -295 0 -196 -3 -295 -10 -295 -26 0 -143 46
-217 85 -144 76 -297 211 -418 370 -270 353 -495 947 -577 1520 -20 138 -17
517 5 635 40 217 99 389 184 530 73 123 63 117 120 74 68 -53 195 -110 285
-128 188 -39 368 -2 538 109 61 40 172 143 192 179 5 9 11 16 14 16 3 0 39
-36 81 -80z m-1581 -353 c2 -2 -5 -32 -16 -68 -49 -160 -80 -375 -80 -551 0
-64 -3 -119 -7 -121 -16 -8 -221 24 -341 53 -201 49 -335 116 -383 193 -70
111 74 341 272 435 97 46 161 63 274 71 71 5 272 -3 281 -12z m3402 -3 c42 -8
115 -33 161 -56 193 -93 336 -313 277 -427 -41 -77 -169 -146 -371 -197 -119
-30 -341 -66 -356 -57 -4 1 -7 58 -8 126 -1 174 -22 324 -66 492 -13 50 -26
98 -30 107 -8 21 15 24 188 26 83 1 155 -4 205 -14z"/>
<path d="M5575 6183 c-11 -2 -30 -6 -42 -9 -33 -6 -94 -63 -109 -101 -69 -164
120 -320 266 -220 55 37 74 71 78 140 3 55 0 67 -26 108 -37 57 -110 93 -167
82z"/>
<path d="M6793 6180 c-51 -12 -97 -44 -121 -86 -33 -57 -28 -147 12 -199 51
-67 138 -91 213 -60 48 20 71 41 94 87 67 132 -54 290 -198 258z"/>
<path d="M12598 317 c-30 -70 -99 -168 -174 -244 l-71 -73 133 0 134 0 0 180
c0 99 -1 180 -2 180 -2 0 -11 -19 -20 -43z"/>
<path d="M0 42 l0 -42 47 0 c25 0 44 1 42 3 -2 1 -23 20 -47 42 l-42 39 0 -42z"/>
</g>
</svg>
